# xmcd
#
# Track frame offsets:
#   150
#   12783
#   25908
#   40214
#   53527
#   71866
#   84248
#   100911
#   115003
#   126807
#   144051
#   158907
#   203733
#   218891
#   231647
#
# Disc length: 3303 seconds
#
# Revision: 0
# Processed by: cddbd v1.5.1PL0 Copyright (c) Steve Scherf et al.
# Submitted via: Media_Universe 3.0
#
DISCID=c40ce50f
DTITLE=Adam Harvey - Cowboy Dreams
DYEAR=1900
DGENRE=Country
TTITLE0=Lovebug
TTITLE1=Call It Love
TTITLE2=When Lonely Met Love
TTITLE3=Hush
TTITLE4=She Dont Know It Yet
TTITLE5=Cowboy For A Day
TTITLE6=Nobody Knows
TTITLE7=Lousiana Rendezuous
TTITLE8=A Little Unfair
TTITLE9=A Little More To It Than That
TTITLE10=Acting A Little Crazy
TTITLE11=Little Cowboy Dreams
TTITLE12=You Gave Me A Mountain
TTITLE13=Jack's House
TTITLE14=Sad Songs And Waltzes
EXTD=
EXTT0=
EXTT1=
EXTT2=
EXTT3=
EXTT4=
EXTT5=
EXTT6=
EXTT7=
EXTT8=
EXTT9=
EXTT10=
EXTT11=
EXTT12=
EXTT13=
EXTT14=
PLAYORDER=
